<?xml version="1.0" encoding="utf-8"?>
<!-- Generator: Adobe Illustrator 16.0.4, SVG Export Plug-In . SVG Version: 6.00 Build 0)  -->
<!DOCTYPE svg PUBLIC "-//W3C//DTD SVG 1.1//EN" "http://www.w3.org/Graphics/SVG/1.1/DTD/svg11.dtd">
<svg version="1.1" id="レイヤー_1" xmlns="http://www.w3.org/2000/svg" xmlns:xlink="http://www.w3.org/1999/xlink" x="0px"
	 y="0px" width="640px" height="480px" viewBox="0 0 640 480" enable-background="new 0 0 640 480" xml:space="preserve">
<path fill="#FFF8E6" d="M200,360h180c49.688,0,90-40.312,90-90h30c66.188,0,120-53.812,120-120S566.188,30,500,30H132.5
	C120.031,30,110,40.031,110,52.5V270C110,319.688,150.312,360,200,360z M500,90c33.094,0,60,26.906,60,60s-26.906,60-60,60h-30V90
	H500z M544.719,450H65.281c-44.625,0-57.188-60-33.75-60h546.844C601.812,390,589.438,450,544.719,450L544.719,450z"/>
</svg>
