<?xml version="1.0" encoding="utf-8"?>
<!-- Generator: Adobe Illustrator 16.0.4, SVG Export Plug-In . SVG Version: 6.00 Build 0)  -->
<!DOCTYPE svg PUBLIC "-//W3C//DTD SVG 1.1//EN" "http://www.w3.org/Graphics/SVG/1.1/DTD/svg11.dtd">
<svg version="1.1" id="レイヤー_1" xmlns="http://www.w3.org/2000/svg" xmlns:xlink="http://www.w3.org/1999/xlink" x="0px"
	 y="0px" width="640px" height="480px" viewBox="0 0 640 480" enable-background="new 0 0 640 480" xml:space="preserve">
<path fill="#D38D00" d="M558.612,239.831c-65.597-0.797-118.565-54.084-118.565-119.869c-65.784,0-119.062-52.959-119.869-118.547
	c-25.556-3.881-51.685,0.281-74.738,12.019l-64.809,33.019c-23.331,11.89-42.296,30.862-54.178,54.197l-32.906,64.575
	c-11.917,23.394-16.124,49.959-12.019,75.89l11.325,71.504c4.102,25.905,16.296,49.849,34.837,68.399l51.347,51.338
	c18.483,18.488,42.345,30.651,68.166,34.743l71.916,11.391c25.791,4.088,52.219-0.103,75.497-11.962l64.81-33.01
	c23.329-11.893,42.294-30.864,54.179-54.196l32.906-64.575C558.284,291.646,562.456,265.453,558.612,239.831L558.612,239.831z
	 M245,345c-16.565,0-30-13.435-30-30s13.435-30,30-30s30,13.435,30,30S261.565,345,245,345z M275,195c-16.565,0-30-13.435-30-30
	s13.435-30,30-30s30,13.435,30,30S291.565,195,275,195z M425,315c-16.565,0-30-13.435-30-30s13.435-30,30-30s30,13.435,30,30
	S441.565,315,425,315z"/>
</svg>
