<?xml version="1.0" encoding="utf-8"?>
<!-- Generator: Adobe Illustrator 16.0.4, SVG Export Plug-In . SVG Version: 6.00 Build 0)  -->
<!DOCTYPE svg PUBLIC "-//W3C//DTD SVG 1.1//EN" "http://www.w3.org/Graphics/SVG/1.1/DTD/svg11.dtd">
<svg version="1.1" id="レイヤー_1" xmlns="http://www.w3.org/2000/svg" xmlns:xlink="http://www.w3.org/1999/xlink" x="0px"
	 y="0px" width="640px" height="480px" viewBox="0 0 640 480" enable-background="new 0 0 640 480" xml:space="preserve">
<path fill="#00A4FF" d="M470,30H170c-33.141,0-60,26.859-60,60v300c0,33.141,26.859,60,60,60h300c33.141,0,60-26.859,60-60V90
	C530,56.859,503.141,30,470,30z M230,180c-16.565,0-30-13.435-30-30s13.435-30,30-30s30,13.435,30,30S246.565,180,230,180z M410,360
	c-16.565,0-30-13.435-30-30s13.435-30,30-30s30,13.435,30,30S426.565,360,410,360z"/>
</svg>
