<?xml version="1.0" encoding="utf-8"?>
<!-- Generator: Adobe Illustrator 16.0.4, SVG Export Plug-In . SVG Version: 6.00 Build 0)  -->
<!DOCTYPE svg PUBLIC "-//W3C//DTD SVG 1.1//EN" "http://www.w3.org/Graphics/SVG/1.1/DTD/svg11.dtd">
<svg version="1.1" id="レイヤー_1" xmlns="http://www.w3.org/2000/svg" xmlns:xlink="http://www.w3.org/1999/xlink" x="0px"
	 y="0px" width="640px" height="480px" viewBox="0 0 640 480" enable-background="new 0 0 640 480" xml:space="preserve">
<path fill="#00A4FF" d="M469.446,30H169.908C136.82,30,110,56.82,110,89.908v299.539c0,33.09,26.82,59.908,59.908,59.908h299.539
	c33.09,0,59.908-26.818,59.908-59.908V89.908C529.354,56.82,502.536,30,469.446,30z M229.815,179.77
	c-16.54,0-29.954-13.414-29.954-29.954s13.414-29.954,29.954-29.954s29.954,13.414,29.954,29.954S246.355,179.77,229.815,179.77z
	 M319.677,269.631c-16.54,0-29.954-13.413-29.954-29.954c0-16.54,13.414-29.954,29.954-29.954c16.541,0,29.954,13.414,29.954,29.954
	C349.631,256.218,336.218,269.631,319.677,269.631z M409.539,359.492c-16.54,0-29.954-13.413-29.954-29.953
	s13.414-29.954,29.954-29.954s29.953,13.414,29.953,29.954S426.079,359.492,409.539,359.492z"/>
</svg>
