<?xml version="1.0" encoding="utf-8"?>
<!-- Generator: Adobe Illustrator 16.0.4, SVG Export Plug-In . SVG Version: 6.00 Build 0)  -->
<!DOCTYPE svg PUBLIC "-//W3C//DTD SVG 1.1//EN" "http://www.w3.org/Graphics/SVG/1.1/DTD/svg11.dtd">
<svg version="1.1" id="レイヤー_1" xmlns="http://www.w3.org/2000/svg" xmlns:xlink="http://www.w3.org/1999/xlink" x="0px"
	 y="0px" width="100px" height="100px" viewBox="0 0 100 100" enable-background="new 0 0 100 100" xml:space="preserve">
<path fill="#00A4FF" d="M81.25,6.25h-62.5c-6.904,0-12.5,5.596-12.5,12.5v62.5c0,6.904,5.596,12.5,12.5,12.5h62.5
	c6.904,0,12.5-5.596,12.5-12.5v-62.5C93.75,11.846,88.154,6.25,81.25,6.25z M31.25,37.5c-3.451,0-6.25-2.799-6.25-6.25
	S27.799,25,31.25,25s6.25,2.799,6.25,6.25S34.701,37.5,31.25,37.5z M50,56.25c-3.451,0-6.25-2.799-6.25-6.25s2.799-6.25,6.25-6.25
	s6.25,2.799,6.25,6.25S53.451,56.25,50,56.25z M68.75,75c-3.451,0-6.25-2.799-6.25-6.25s2.799-6.25,6.25-6.25S75,65.299,75,68.75
	S72.201,75,68.75,75z"/>
</svg>
