<?xml version="1.0" encoding="utf-8"?>
<!-- Generator: Adobe Illustrator 16.0.4, SVG Export Plug-In . SVG Version: 6.00 Build 0)  -->
<!DOCTYPE svg PUBLIC "-//W3C//DTD SVG 1.1//EN" "http://www.w3.org/Graphics/SVG/1.1/DTD/svg11.dtd">
<svg version="1.1" id="レイヤー_1" xmlns="http://www.w3.org/2000/svg" xmlns:xlink="http://www.w3.org/1999/xlink" x="0px"
	 y="0px" width="640px" height="480px" viewBox="0 0 640 480" enable-background="new 0 0 640 480" xml:space="preserve">
<path fill="#FFEDD4" d="M538.625,269.906h-25.688c-2.438,0-4.312,1.875-4.312,4.312v30h-34.312V137.062
	c0-2.438-1.875-4.312-4.312-4.312h-25.688c-2.438,0-4.312,1.875-4.312,4.312v30h-34.312v-30c0-2.438-1.875-4.312-4.312-4.312
	h-25.688c-2.438,0-4.312,1.875-4.312,4.312v30h-34.312v-30c0-5.625-7.5-4.312-10.969-4.312V97.125
	c7.781-1.875,16.031-3.188,24.094-3.188c10.219,0,19.594,4.031,29.438,4.031c4.312,0,25.969-1.031,25.969-7.5v-56.25
	c0-2.438-1.875-4.312-4.312-4.312c-4.781,0-14.156,4.031-22.5,4.031c-9.094,0-19.594-4.031-30.562-4.031
	c-7.5,0-15,1.031-22.219,2.719v-4.594c5.062-2.438,8.531-7.781,8.531-13.406c0-19.406-29.438-19.5-29.438,0
	c0,5.625,3.469,10.969,8.531,13.406V132.75c-3.469,0-10.969-1.312-10.969,4.312v30h-34.312v-30c0-2.438-1.875-4.312-4.312-4.312
	h-25.688c-2.438,0-4.312,1.875-4.312,4.312v30H200v-30c0-2.438-1.875-4.312-4.312-4.312H170c-2.438,0-4.312,1.875-4.312,4.312
	v167.156h-34.312v-30c0-2.438-1.875-4.312-4.312-4.312h-25.688c-2.438,0-4.312,1.875-4.312,4.312V480h171.469v-90
	c0-68.062,102.844-68.062,102.844,0v90h171.469V274.219C542.938,271.781,541.062,269.906,538.625,269.906L538.625,269.906z
	 M268.531,265.688c0,2.438-1.875,4.312-4.312,4.312h-25.688c-2.438,0-4.312-1.875-4.312-4.312v-60c0-2.438,1.875-4.312,4.312-4.312
	h25.688c2.438,0,4.312,1.875,4.312,4.312V265.688z M405.781,265.688c0,2.438-1.875,4.312-4.312,4.312h-25.688
	c-2.438,0-4.312-1.875-4.312-4.312v-60c0-2.438,1.875-4.312,4.312-4.312h25.688c2.438,0,4.312,1.875,4.312,4.312V265.688z"/>
</svg>
