<?xml version="1.0" encoding="utf-8"?>
<!-- Generator: Adobe Illustrator 16.0.4, SVG Export Plug-In . SVG Version: 6.00 Build 0)  -->
<!DOCTYPE svg PUBLIC "-//W3C//DTD SVG 1.1//EN" "http://www.w3.org/Graphics/SVG/1.1/DTD/svg11.dtd">
<svg version="1.1" id="レイヤー_1" xmlns="http://www.w3.org/2000/svg" xmlns:xlink="http://www.w3.org/1999/xlink" x="0px"
	 y="0px" width="640px" height="480px" viewBox="0 0 640 480" enable-background="new 0 0 640 480" xml:space="preserve">
<path fill="#D1FFCC" d="M320,0c-65.241,0-118.125,52.884-118.125,118.125c0,52.744,77.203,148.875,106.781,183.769
	c5.991,7.069,16.706,7.069,22.688,0C360.922,267,438.125,170.869,438.125,118.125C438.125,52.884,385.24,0,320,0z M320,157.5
	c-21.75,0-39.375-17.625-39.375-39.375S298.25,78.75,320,78.75s39.375,17.625,39.375,39.375S341.75,157.5,320,157.5z
	 M68.862,202.453c-11.39,4.556-18.859,15.586-18.862,27.853v234.675c0,10.612,10.716,17.868,20.569,13.931L200,420V201.487
	c-8.288-14.981-15.065-29.568-19.922-43.519L68.862,202.453z M320,337.19c-13.19,0-25.669-5.794-34.228-15.899
	c-18.431-21.75-38.035-46.52-55.772-71.926V419.99l180,60V249.375c-17.737,25.396-37.331,50.175-55.771,71.925
	C345.669,331.396,333.19,337.19,320,337.19z M569.432,151.087L440,210v270l131.138-52.453C582.529,422.993,590,411.962,590,399.693
	V165.019C590,154.406,579.284,147.15,569.432,151.087z"/>
</svg>
