<?xml version="1.0" encoding="utf-8"?>
<!-- Generator: Adobe Illustrator 16.0.4, SVG Export Plug-In . SVG Version: 6.00 Build 0)  -->
<!DOCTYPE svg PUBLIC "-//W3C//DTD SVG 1.1//EN" "http://www.w3.org/Graphics/SVG/1.1/DTD/svg11.dtd">
<svg version="1.1" id="レイヤー_1" xmlns="http://www.w3.org/2000/svg" xmlns:xlink="http://www.w3.org/1999/xlink" x="0px"
	 y="0px" width="640px" height="480px" viewBox="0 0 640 480" enable-background="new 0 0 640 480" xml:space="preserve">
<path fill="#B9E2EF" d="M605,420H35c-8.288,0-15,6.713-15,15v30c0,8.287,6.712,15,15,15h570c8.287,0,15-6.713,15-15v-30
	C620,426.713,613.287,420,605,420z M62.009,192.806l83.194,75c6.826,6.164,15.005,10.637,23.878,13.059l269.625,73.453
	c24.825,6.76,51.15,8.176,75.938,1.275c27.815-7.753,40.726-19.885,44.297-33.479c3.591-13.594-1.622-30.665-21.909-51.524
	c-18.075-18.581-41.578-30.741-66.403-37.5l-91.415-24.9L285.125,28.331c-1.416-5.447-5.578-9.703-10.931-11.166L213.172,0.544
	c-9.9-2.7-19.594,4.987-19.416,15.412l44.925,153.947l-95.812-26.1l-25.866-63.638c-1.809-4.584-5.634-8.034-10.331-9.309
	L69.425,60.703C59.731,58.06,50.178,65.391,50,75.591l0.216,95.418C50.394,179.362,55.869,187.266,62.009,192.806z"/>
</svg>
