<?xml version="1.0" encoding="utf-8"?>
<!-- Generator: Adobe Illustrator 16.0.4, SVG Export Plug-In . SVG Version: 6.00 Build 0)  -->
<!DOCTYPE svg PUBLIC "-//W3C//DTD SVG 1.1//EN" "http://www.w3.org/Graphics/SVG/1.1/DTD/svg11.dtd">
<svg version="1.1" id="レイヤー_1" xmlns="http://www.w3.org/2000/svg" xmlns:xlink="http://www.w3.org/1999/xlink" x="0px"
	 y="0px" width="489px" height="366.75px" viewBox="123.5 113.25 489 366.75" enable-background="new 123.5 113.25 489 366.75"
	 xml:space="preserve">
<path fill="#BCBCBC" stroke="#EFEFEF" stroke-miterlimit="10" d="M367.929,125.196c0.569,3.346,11.462,67.276,11.462,91.695
	c0,37.233-19.791,63.788-49.051,74.466l9.184,169.507c0.498,9.754-7.262,18.012-17.086,18.012h-45.562
	c-9.753,0-17.584-8.188-17.086-18.012l9.184-169.507c-29.331-10.679-49.051-37.304-49.051-74.466
	c0-24.49,10.892-88.349,11.462-91.695c2.278-14.452,32.25-14.666,34.101,0.783v100.522c0.926,2.42,10.75,2.278,11.391,0
	c0.997-18.012,5.624-99.099,5.695-100.95c2.35-14.808,31.823-14.808,34.101,0c0.143,1.922,4.698,82.938,5.695,100.95
	c0.642,2.278,10.536,2.42,11.391,0V125.979C335.607,110.602,365.65,110.745,367.929,125.196z M452.789,328.591L442.11,460.366
	c-0.854,9.967,7.048,18.51,17.015,18.51h39.867c9.469,0,17.086-7.617,17.086-17.086V131.461c0-9.397-7.617-17.086-17.086-17.086
	C440.26,114.375,341.375,241.452,452.789,328.591L452.789,328.591z"/>
</svg>
